inDegrees=no
num_controls=7
num_derivatives=13
num_iterations=149
num_multipliers=7
num_parameters=0
num_slacks=7
num_states=26
objective=0.470437
objective_accelerations=0.062197
objective_balance=0.002069
objective_effort=0.019788
objective_height=0.376830
objective_ligament=0.009553
solver_duration=1995.264764
status=Solve_Succeeded
success=true
DataType=double
version=3
OpenSimVersion=4.5
endheader
time	/jointset/ground_pelvis/pelvis_tilt/value	/jointset/ground_pelvis/pelvis_tx/value	/jointset/ground_pelvis/pelvis_ty/value	/jointset/hip_l/hip_flexion_l/value	/jointset/hip_l/hip_adduction_l/value	/jointset/hip_l/hip_rotation_l/value	/jointset/back/lumbar_extension/value	/jointset/patellofemoral_l/patellar_flexion_l/value	/jointset/knee_l/knee_flexion_l/value	/jointset/knee_l/knee_adduction_l/value	/jointset/knee_l/knee_rotation_l/value	/jointset/ankle_l/ankle_angle_l/value	/jointset/subtalar_l/subtalar_angle_l/value	/jointset/ground_pelvis/pelvis_tilt/speed	/jointset/ground_pelvis/pelvis_tx/speed	/jointset/ground_pelvis/pelvis_ty/speed	/jointset/hip_l/hip_flexion_l/speed	/jointset/hip_l/hip_adduction_l/speed	/jointset/hip_l/hip_rotation_l/speed	/jointset/back/lumbar_extension/speed	/jointset/patellofemoral_l/patellar_flexion_l/speed	/jointset/knee_l/knee_flexion_l/speed	/jointset/knee_l/knee_adduction_l/speed	/jointset/knee_l/knee_rotation_l/speed	/jointset/ankle_l/ankle_angle_l/speed	/jointset/subtalar_l/subtalar_angle_l/speed	/forceset/tau_hip_flexion_l	/forceset/tau_hip_adduction_l	/forceset/tau_hip_rotation_l	/forceset/tau_knee_flexion_l	/forceset/tau_ankle_angle_l	/forceset/tau_subtalar_angle_l	/forceset/tau_lumbar_extension	lambda_cid13_p0	lambda_cid13_p1	lambda_cid13_p2	lambda_cid13_p3	lambda_cid13_p4	lambda_cid13_p5	lambda_cid14_p0	/jointset/ground_pelvis/pelvis_tilt/accel	/jointset/ground_pelvis/pelvis_tx/accel	/jointset/ground_pelvis/pelvis_ty/accel	/jointset/hip_l/hip_flexion_l/accel	/jointset/hip_l/hip_adduction_l/accel	/jointset/hip_l/hip_rotation_l/accel	/jointset/back/lumbar_extension/accel	/jointset/patellofemoral_l/patellar_flexion_l/accel	/jointset/knee_l/knee_flexion_l/accel	/jointset/knee_l/knee_adduction_l/accel	/jointset/knee_l/knee_rotation_l/accel	/jointset/ankle_l/ankle_angle_l/accel	/jointset/subtalar_l/subtalar_angle_l/accel	gamma_cid13_p0	gamma_cid13_p1	gamma_cid13_p2	gamma_cid13_p3	gamma_cid13_p4	gamma_cid13_p5	gamma_cid14_p0
1.5	-0.5486540007575953	-0.03858280437146037	0.7930911127185266	1.188836485486823	-0.3472880566971765	-0.1196071552037739	-0.3410192941965496	0.5611063179659399	0.5611063179663457	-0.05915725406401968	-0.1744424581956446	0.01596964657542998	0.07962915571791607	1.054923463458853	0.4949835306617407	0.4628744609527672	-2.776242209174915	-0.0005987289442784876	-0.5124133955530326	0.6029656437674669	-1.525540506998163	-1.525540506998226	-0.2102158308988254	0.004100659817425852	0.0877878281080028	0.03156168608984074	-0.2012478062688337	0.009565944311135792	0.007507045408582806	-0.0640531964330867	0.02990741794308384	0.01674316426161088	0.1647316990568263	-13.86671127795459	-7.283596527385987	3.667262258262318	-6.507421557938549	-430.8248389911358	-66.99533166401103	-20.36069496668795	0.800213132284062	0.8357125772421902	-0.5978720494290783	-1.708658699609029	0.2347006265518053	-0.2702983978566942	1.823257038377966	-0.5687515531795727	-0.5687515531795778	-0.3351369690830495	0.1572284263421665	0.2882326534353473	0.3319931024594844	-2.219321335052701e-09	1.319684499774226e-06	-1.237070532575719e-08	2.657575622018409e-07	2.63487620961782e-07	-1.246001597782854e-07	2.229816392916266e-07
1.51	-0.538065448910191	-0.03359175264104707	0.7976890344912311	1.160990912451912	-0.3472836374192217	-0.124745404074689	-0.3349005649498418	0.5458241667784217	0.5458241667785538	-0.06127820332620001	-0.1743954474744353	0.01686158132534107	0.07995991818430369	1.062607467335613	0.5031552408977547	0.4566084516398271	-2.792473685505481	0.001496838943129876	-0.5151808188388738	0.6206850991496194	-1.530687928546181	-1.530687928546222	-0.2139351441102365	0.005324457497828313	0.09059853699730121	0.03460572447265108	-0.1943714822329635	0.009163142798774209	0.007816436589876243	-0.0625507475671345	0.02706016129790734	0.01554641920319365	0.159610816815174	-14.65093558350077	-6.817021624112872	3.810455105955179	-5.816759005085676	-427.0310348014542	-66.47022495805766	-20.85602683996224	0.7256106682758446	0.7972063609788	-0.6560941076494321	-1.520545321042143	0.1989902073991001	-0.2713904896621314	1.732023824455251	-0.4575266794910269	-0.4575266794877896	-0.3843047475604936	0.10822137330009	0.2774358149286047	0.2927407002296586	5.247141849306159e-08	1.224745297306548e-06	-4.460516515450243e-07	2.299233842779732e-07	3.785232934242797e-07	-1.204564176611991e-07	2.722222696389874e-07
1.52	-0.5274054336934384	-0.0285211225854341	0.8022212704237215	1.132994994009442	-0.34725786139488	-0.1299096124176045	-0.3286074943420482	0.5304965835306501	0.5304965835305043	-0.06343514097057915	-0.1743355455895417	0.01778161232579552	0.08032154733332698	1.069216137328531	0.5108991957016752	0.4497372929099697	-2.806311290686515	0.003672620333087332	-0.5176052899532863	0.6378339159846271	-1.534626919049324	-1.534626919049344	-0.2174135073372609	0.006678892554662861	0.09340707821666049	0.03773502261697564	-0.1874951581970898	0.008760341286416473	0.00812582777114489	-0.06104829870118035	0.02421290465273237	0.01434967414478116	0.1544899345735239	-15.43894827642865	-6.350072588673783	3.953919201153735	-5.115286648889332	-423.2938430875286	-66.00122926844094	-21.32938197949559	0.5851463555158253	0.7501614908235011	-0.718901932812528	-1.229884469702487	0.2507433270616267	-0.2017079635709203	1.709129328949025	-0.3270653442045938	-0.3270653442045875	-0.2869469722057018	0.1833559016285951	0.287799119447522	0.3490450547623278	8.34072603017703e-08	1.209217529041476e-06	-6.893871576479474e-07	2.110823440435516e-07	4.59386874508301e-07	-1.038902474253995e-07	3.036935418882033e-07
1.53	-0.5166846359813713	-0.02337525373897491	0.806681860757599	1.104872488759871	-0.3472101069312344	-0.1350962543382267	-0.3221460743266616	0.5151355303709234	0.5151355303709015	-0.06562605991582857	-0.1742614345015101	0.01872961665258921	0.08071467844534919	1.074763273409578	0.5181958565501745	0.4422862402056745	-2.817783508285804	0.00588318455282722	-0.5196420549574723	0.6543350079729956	-1.537374297139142	-1.537374297139062	-0.2207488112320486	0.008180320143469014	0.09619304067753333	0.04089630184128006	-0.1806220781615125	0.008222277587456127	0.008412491899487147	-0.05969888800366124	0.02162547503715186	0.01296343667840834	0.1493412108039945	-16.1643161155688	-5.806582604741072	4.079225341087716	-4.444629694885172	-419.7258156190957	-65.42817484612142	-21.77864898647362	0.5125094834413531	0.7076528010295549	-0.7722814290792304	-1.044911624771936	0.2068003862685734	-0.1922441350700245	1.603337265817825	-0.2172262830327764	-0.2172262830178269	-0.3533918075416322	0.1388856208708304	0.2739201608094248	0.3003164312092845	8.910352296486086e-08	1.278064409616672e-06	-7.304806336272569e-07	2.102965126041663e-07	5.039426085026915e-07	-7.412524731346735e-08	3.162848711581405e-07
1.54	-0.5059137644586854	-0.01815877140019748	0.8110651256664652	1.076647457090361	-0.3471401293420235	-0.1403007805821362	-0.3155230957649839	0.4997532729819697	0.4997532729820661	-0.06784964584191901	-0.174171239250914	0.01970546567427208	0.08113955176460341	1.079230899452316	0.5250218941653252	0.4342722079077307	-2.826816574674285	0.008117245446102995	-0.5211821546107613	0.670145625242847	-1.538867764895454	-1.538867764895275	-0.2239469035038889	0.009895725066843036	0.09897601719449671	0.04408346406337609	-0.1737489981259345	0.007684213888496523	0.00869915602779631	-0.05834947730614052	0.01903804542157199	0.01157719921203687	0.1441924870344655	-16.89247430616761	-5.26260913459761	4.204460975981261	-3.767478621731347	-416.1979175835951	-64.91134665721202	-22.20457759759343	0.3692443478541648	0.6560368441537325	-0.8314978515422304	-0.7420542275406005	0.2554426617688051	-0.1023748933915277	1.571034385245579	-0.07628327750344303	-0.07628327750344156	-0.259504647616218	0.2261513685421719	0.2872019306656301	0.3542216543206516	9.056312644088049e-08	1.338891115058294e-06	-7.466954731152178e-07	2.100809659938335e-07	5.408164322903474e-07	-4.12479110886419e-08	3.232864986710778e-07
1.55	-0.4951036157565254	-0.01287651636009119	0.8153655184247907	1.048344297572168	-0.3470477372161545	-0.1455185946432531	-0.3087456476646421	0.4843622242620355	0.4843622242620402	-0.07010447074715268	-0.1740631262420565	0.02070894712963221	0.0815963307210545	1.082613597275609	0.5313363395475325	0.4257185672177775	-2.833390285639793	0.01035789362256801	-0.5223145466416936	0.685214860236079	-1.539128818322072	-1.539128818322055	-0.2269970820018828	0.01174215828277767	0.1017069887331134	0.04726556311879879	-0.1670377957635315	0.007015336112468282	0.008964272919355179	-0.05687255977160548	0.01617277231558441	0.01015468407734859	0.1391106980308661	-17.72757137631415	-4.692038680614916	4.334459415692416	-2.951478739754593	-412.8888223153102	-64.37081047493258	-22.60666067843656	0.2950242905833776	0.6052743925510754	-0.880346777128875	-0.5512345988568187	0.2077125166367602	-0.1084948950591192	1.455497867939827	0.03089290819972819	0.03089290817547358	-0.3243994431814531	0.1659840009583865	0.2640912807635097	0.2990518999713171	8.714136172310127e-08	1.390477183932973e-06	-7.342457966457568e-07	2.105224866865395e-07	5.688393595354617e-07	-4.78462238591789e-09	3.238478176379067e-07
1.56	-0.4842651917179293	-0.007533891664703477	0.8195777648563352	1.01998815993076	-0.3469330712843103	-0.1507456973321021	-0.3018213812520524	0.4689749468645248	0.4689749468644335	-0.07238912243582707	-0.1739361299604708	0.02173934760343928	0.08208470024182347	1.084885966739564	0.5370958252216091	0.416642942551544	-2.837412199317338	0.01257200664108905	-0.5230398801572271	0.6995092876924244	-1.538113500411062	-1.538113500411207	-0.2299122601914953	0.01367237961228322	0.1043598208838832	0.05040157692695123	-0.1603265934011267	0.006346458336441509	0.009229389810904919	-0.05539564223706959	0.01330749920959742	0.008732168942662108	0.134028909027268	-18.56496719676296	-4.120550044260475	4.463723200551357	-2.131056648473877	-409.6116263950093	-63.88264443453772	-22.98445344082772	0.1471786759866853	0.5450449025276083	-0.9358946467982585	-0.2316947699480797	0.2501356301800087	-0.02096319031174611	1.41607287786825	0.178990990022076	0.1789909900220739	-0.2325045859399539	0.242908991256354	0.2715740530962686	0.3450046048666015	8.205862829264828e-08	1.461448012878434e-06	-7.115057110739737e-07	2.13700588686448e-07	5.946373545868234e-07	3.16776469176863e-08	3.254712006444223e-07
1.57	-0.4734095833827033	-0.002136509548645477	0.8236967600027537	0.9916044809308237	-0.346796359162158	-0.1559783428641766	-0.2947582510606745	0.4536040970691685	0.453604097069064	-0.07470208425395188	-0.1737896319653068	0.02279582958206901	0.08260422362401582	1.086047862656675	0.542281192365576	0.4070782064258155	-2.838889192028994	0.01476565681199127	-0.5234140037567712	0.7129709551984638	-1.535837255476376	-1.535837255476469	-0.2326552833757399	0.01564683403518307	0.106923957209046	0.05349496240523799	-0.1536762570905035	0.005551820634134026	0.009456673886755779	-0.05415196849650003	0.01077778202610589	0.007137701413863015	0.1289768321067201	-19.32297754838701	-3.479338562081694	4.571654526238328	-1.358291314754949	-406.6584608938336	-63.32325885067218	-23.33775707208341	0.07254280540505798	0.4904165964214033	-0.9783189601512929	-0.04050610661586152	0.2030546915355668	-0.03409459032407321	1.289344379260741	0.2847556985882987	0.284755698595882	-0.2912175029928279	0.1774656102966518	0.2469845381290089	0.2901088097266607	7.489968397135311e-08	1.556649791912371e-06	-6.759026141242879e-07	2.202994173203597e-07	6.176541843959946e-07	6.813864197239071e-08	3.284221637005465e-07
1.58	-0.4625479865371401	0.003309753034070198	0.8277177966149767	0.9632190710868028	-0.3466378955420987	-0.1612124211613543	-0.2875648780557785	0.4382625726138341	0.4382625726137243	-0.07704167956757976	-0.1736228390374215	0.02387758314713102	0.08315440151907447	1.086083668807057	0.5468719185531441	0.3970512357124417	-2.837758368134309	0.0169223062225008	-0.5233264331782492	0.7255578503960622	-1.532248432405835	-1.532248432405878	-0.2352389592930283	0.01773136615767722	0.109414138170318	0.05653247950020311	-0.1470259207798737	0.004757182931836905	0.009683957962645569	-0.05290829475592843	0.008248064842618289	0.005543233885075323	0.1239247551861743	-20.08277811948052	-2.83667421069116	4.678053623913071	-0.5832607317097512	-403.7277773373499	-62.81129073586883	-23.66669330442079	-0.07803927735907264	0.4261167112478168	-1.028341564327347	0.2898685513202496	0.2427354781014681	0.07137564530145431	1.241118416180063	0.4415066171929274	0.4415066171929081	-0.2006351325487386	0.2649245311752111	0.2567829803181154	0.333830928202272	6.780893698220927e-08	1.637997064125617e-06	-6.44052717020176e-07	2.246208232933485e-07	6.400513269991175e-07	1.053009226710781e-07	3.295343794589703e-07
1.59	-0.4516916593815417	0.008798845898060296	0.8316363677963085	0.9348580387419435	-0.3464578965275686	-0.1664434388866064	-0.2802501941921808	0.4229634101329942	0.422963410133036	-0.07940598371551161	-0.1734346280746975	0.02498378780078962	0.08373480944561588	1.084991880408335	0.5508367170773684	0.3865954132982427	-2.833995317575496	0.01907881977027766	-0.5227842793303022	0.7372166336184089	-1.527356093735655	-1.527356093735695	-0.2375777846404498	0.01994547121280492	0.1118122725498127	0.05954656074263892	-0.1405383292270206	0.003870140850924541	0.009874663830476494	-0.05171372404621456	0.005714789118539507	0.003870683762177331	0.1189652965599737	-20.87094551771066	-2.154647988487189	4.777623791402277	0.2464137551233941	-401.1673606004062	-62.27654560405259	-23.97159619796873	-0.1532132260869343	0.3652161648565972	-1.064205777504729	0.4874698211131013	0.2020701314022373	0.0598123714271874	1.103914969491118	0.5472275305492202	0.5472275305497286	-0.2436111806284502	0.2046669116977359	0.2291965388539292	0.2846127305985037	6.081074351527078e-08	1.700541791367924e-06	-6.17296448277914e-07	2.258514413693708e-07	6.61607465536889e-07	1.434149481723138e-07	3.281511524562292e-07
